<svg width="57" height="29" viewBox="0 0 57 29" fill="none" xmlns="http://www.w3.org/2000/svg">
<path d="M13.344 14.336H16.896V21.152C15.984 21.84 14.928 22.368 13.728 22.736C12.528 23.104 11.32 23.288 10.104 23.288C8.36 23.288 6.792 22.92 5.4 22.184C4.008 21.432 2.912 20.4 2.112 19.088C1.328 17.76 0.936 16.264 0.936 14.6C0.936 12.936 1.328 11.448 2.112 10.136C2.912 8.808 4.016 7.776 5.424 7.04C6.832 6.288 8.416 5.912 10.176 5.912C11.648 5.912 12.984 6.16 14.184 6.656C15.384 7.152 16.392 7.872 17.208 8.816L14.712 11.12C13.512 9.856 12.064 9.224 10.368 9.224C9.296 9.224 8.344 9.448 7.512 9.896C6.68 10.344 6.032 10.976 5.568 11.792C5.104 12.608 4.872 13.544 4.872 14.6C4.872 15.64 5.104 16.568 5.568 17.384C6.032 18.2 6.672 18.84 7.488 19.304C8.32 19.752 9.264 19.976 10.32 19.976C11.44 19.976 12.448 19.736 13.344 19.256V14.336Z" fill="black"/>
<path d="M21.8096 15.062C22.1096 14.51 22.5536 14.09 23.1416 13.802C23.7296 13.514 24.4436 13.37 25.2836 13.37V15.044C25.1876 15.032 25.0556 15.026 24.8876 15.026C23.9516 15.026 23.2136 15.308 22.6736 15.872C22.1456 16.424 21.8816 17.216 21.8816 18.248V23H20.1536V13.46H21.8096V15.062ZM36.2421 13.46L31.6161 23.954C31.2081 24.926 30.7281 25.61 30.1761 26.006C29.6361 26.402 28.9821 26.6 28.2141 26.6C27.7461 26.6 27.2901 26.522 26.8461 26.366C26.4141 26.222 26.0541 26.006 25.7661 25.718L26.5041 24.422C26.9961 24.89 27.5661 25.124 28.2141 25.124C28.6341 25.124 28.9821 25.01 29.2581 24.782C29.5461 24.566 29.8041 24.188 30.0321 23.648L30.3381 22.982L26.1261 13.46H27.9261L31.2561 21.092L34.5501 13.46H36.2421ZM41.03 13.37C42.35 13.37 43.358 13.694 44.054 14.342C44.762 14.99 45.116 15.956 45.116 17.24V23H43.478V21.74C43.19 22.184 42.776 22.526 42.236 22.766C41.708 22.994 41.078 23.108 40.346 23.108C39.278 23.108 38.42 22.85 37.772 22.334C37.136 21.818 36.818 21.14 36.818 20.3C36.818 19.46 37.124 18.788 37.736 18.284C38.348 17.768 39.32 17.51 40.652 17.51H43.388V17.168C43.388 16.424 43.172 15.854 42.74 15.458C42.308 15.062 41.672 14.864 40.832 14.864C40.268 14.864 39.716 14.96 39.176 15.152C38.636 15.332 38.18 15.578 37.808 15.89L37.088 14.594C37.58 14.198 38.168 13.898 38.852 13.694C39.536 13.478 40.262 13.37 41.03 13.37ZM40.634 21.776C41.294 21.776 41.864 21.632 42.344 21.344C42.824 21.044 43.172 20.624 43.388 20.084V18.752H40.724C39.26 18.752 38.528 19.244 38.528 20.228C38.528 20.708 38.714 21.086 39.086 21.362C39.458 21.638 39.974 21.776 40.634 21.776ZM55.3878 21.578V23H47.3958V21.884L53.0298 14.882H47.5038V13.46H55.2438V14.594L49.6098 21.578H55.3878Z" fill="#E4A919"/>
<line x1="18.993" y1="28" x2="55.0069" y2="28" stroke="black"/>
</svg>
